# xmcd
#
# Track frame offsets:
#	150
#	11875
#	23650
#	35125
#	46100
#	59150
#	70775
#	79525
#	90562
#	102062
#
# Disc length: 1508 seconds
#
# Revision: 1
# Processed by: cddbd v1.4PL0 Copyright (c) Steve Scherf et al.
# Submitted via: audiograbber 1.80
#
DISCID=7805e20a
DTITLE=Patsy Cline - The Best of Patsy
DYEAR=1900
DGENRE=
TTITLE0=Just Out Of Reach
TTITLE1=Walking After Midnight
TTITLE2=Stop The World
TTITLE3=Honky-Tonk Merry Go Round
TTITLE4=Just a Closer Walk With Thee
TTITLE5=Crazy Dreams
TTITLE6=Come On In
TTITLE7=I Can See An Angel
TTITLE8=A Stranger In My Arms
TTITLE9=I Cried All The Way To The Alter
EXTD=
EXTT0=
EXTT1=
EXTT2=
EXTT3=
EXTT4=
EXTT5=
EXTT6=
EXTT7=
EXTT8=
EXTT9=
PLAYORDER=
